<svg width="679" height="425" viewBox="0 0 679 425" fill="none" xmlns="http://www.w3.org/2000/svg">
<g filter="url(#filter0_b_1_71)">
<mask id="path-1-inside-1_1_71" fill="white">
<path fill-rule="evenodd" clip-rule="evenodd" d="M292.631 8.28748L326.38 55L649 55.0001C665.569 55.0001 679 68.4315 679 85.0001L679 395C679 411.569 665.569 425 649 425L30 425C13.4315 425 0 411.569 0 395V118V85V20C0 8.9543 8.95435 -2.79144e-06 20 0L276.419 3.57889e-05C282.84 3.66851e-05 288.871 3.08283 292.631 8.28748Z"/>
</mask>
<path fill-rule="evenodd" clip-rule="evenodd" d="M292.631 8.28748L326.38 55L649 55.0001C665.569 55.0001 679 68.4315 679 85.0001L679 395C679 411.569 665.569 425 649 425L30 425C13.4315 425 0 411.569 0 395V118V85V20C0 8.9543 8.95435 -2.79144e-06 20 0L276.419 3.57889e-05C282.84 3.66851e-05 288.871 3.08283 292.631 8.28748Z" fill="black" fill-opacity="0.29"/>
<path d="M326.38 55V57H325.358L324.759 56.1713L326.38 55ZM292.631 8.28748L294.252 7.11622V7.11622L292.631 8.28748ZM649 55.0001V53.0001H649L649 55.0001ZM679 85.0001H677H679ZM679 395H681H679ZM649 425V427V425ZM30 425V423V425ZM20 0V2V0ZM276.419 3.57889e-05V2.00004V3.57889e-05ZM324.759 56.1713L291.01 9.45873L294.252 7.11622L328.001 53.8288L324.759 56.1713ZM649 57.0001L326.38 57V53L649 53.0001V57.0001ZM677 85.0001C677 69.5361 664.464 57.0001 649 57.0001L649 53.0001C666.673 53.0001 681 67.327 681 85.0001H677ZM677 395L677 85.0001H681L681 395H677ZM649 423C664.464 423 677 410.464 677 395H681C681 412.673 666.673 427 649 427V423ZM30 423L649 423V427L30 427V423ZM2 395C2 410.464 14.536 423 30 423V427C12.3268 427 -2 412.673 -2 395H2ZM2 118V395H-2V118H2ZM2 85V118H-2V85H2ZM2 20V85H-2V20H2ZM20 2C10.0589 2 2 10.0589 2 20H-2C-2 7.84973 7.84973 -2 20 -2V2ZM276.419 2.00004L20 2V-2L276.419 -1.99996V2.00004ZM291.01 9.45873C287.626 4.77455 282.198 2.00004 276.419 2.00004V-1.99996C283.482 -1.99996 290.116 1.39111 294.252 7.11622L291.01 9.45873Z" fill="#22F5C3" mask="url(#path-1-inside-1_1_71)"/>
</g>
<defs>
<filter id="filter0_b_1_71" x="-10" y="-10" width="699" height="445" filterUnits="userSpaceOnUse" color-interpolation-filters="sRGB">
<feFlood flood-opacity="0" result="BackgroundImageFix"/>
<feGaussianBlur in="BackgroundImageFix" stdDeviation="5"/>
<feComposite in2="SourceAlpha" operator="in" result="effect1_backgroundBlur_1_71"/>
<feBlend mode="normal" in="SourceGraphic" in2="effect1_backgroundBlur_1_71" result="shape"/>
</filter>
</defs>
</svg>
