<svg width="101" height="101" viewBox="0 0 101 101" fill="none" xmlns="http://www.w3.org/2000/svg">
<g filter="url(#filter0_bd_1_32)">
<path d="M29 77C26.2386 77 24 74.7614 24 72L24 29C24 26.2386 26.2386 24 29 24L57.9717 24C59.0832 24 60.1631 24.3704 61.0406 25.0526L75.0689 35.959C76.2873 36.9062 77 38.3631 77 39.9064L77 72C77 74.7614 74.7614 77 72 77L29 77Z" fill="#22F5C3"/>
</g>
<path d="M62.1689 47.631C61.8909 46.765 61.1528 46.1451 60.2421 46.0141L54.733 45.2248L52.2725 40.3101C51.8667 39.5017 51.0518 39 50.1411 39C49.2304 39 48.4124 39.5017 48.0097 40.3101L45.5492 45.2248L40.0402 46.0141C39.1295 46.1451 38.3913 46.765 38.1133 47.631C37.8385 48.4874 38.0718 49.4077 38.7237 50.034L42.7052 53.8558L41.7658 59.2498C41.6124 60.1318 41.9671 61.0073 42.6924 61.541C43.4306 62.0842 44.3988 62.1577 45.2137 61.7359L50.1411 59.1827L55.0686 61.7359C55.4201 61.918 55.8003 62.0075 56.1742 62.0075C56.6727 62.0075 57.168 61.8509 57.5898 61.541C58.3152 61.0073 58.6699 60.1318 58.5165 59.2498L57.577 53.8558L61.5586 50.034C62.2105 49.4077 62.4438 48.4874 62.1689 47.631ZM60.6735 49.1137L56.449 53.172C56.2956 53.319 56.2253 53.5331 56.2605 53.744L57.2575 59.4735C57.3278 59.8793 57.168 60.266 56.8325 60.5152C56.481 60.7709 56.0432 60.806 55.6533 60.6047L50.4319 57.8981C50.3392 57.8502 50.2402 57.8278 50.1379 57.8278C50.0357 57.8278 49.9366 57.8502 49.8439 57.8981L44.6225 60.6047C44.2359 60.806 43.7949 60.7709 43.4434 60.5152C43.1079 60.2692 42.9481 59.8793 43.0184 59.4735L44.0154 53.744C44.0505 53.5331 43.9802 53.319 43.8268 53.172L39.6056 49.1137C39.3052 48.8229 39.1998 48.4171 39.3276 48.0241C39.4586 47.6214 39.7909 47.3434 40.2191 47.2827L46.0573 46.4455C46.265 46.4167 46.4439 46.2857 46.5398 46.1004L49.1505 40.8853C49.5276 40.1312 50.7515 40.1312 51.1285 40.8853L53.7392 46.1004C53.8319 46.2889 54.0141 46.4167 54.2218 46.4455L60.0599 47.2827C60.4881 47.3434 60.8204 47.6214 60.9515 48.0241C61.0793 48.4171 60.9738 48.8261 60.6735 49.1137Z" fill="black"/>
<defs>
<filter id="filter0_bd_1_32" x="0" y="0" width="101" height="101" filterUnits="userSpaceOnUse" color-interpolation-filters="sRGB">
<feFlood flood-opacity="0" result="BackgroundImageFix"/>
<feGaussianBlur in="BackgroundImageFix" stdDeviation="2"/>
<feComposite in2="SourceAlpha" operator="in" result="effect1_backgroundBlur_1_32"/>
<feColorMatrix in="SourceAlpha" type="matrix" values="0 0 0 0 0 0 0 0 0 0 0 0 0 0 0 0 0 0 127 0" result="hardAlpha"/>
<feOffset/>
<feGaussianBlur stdDeviation="12"/>
<feComposite in2="hardAlpha" operator="out"/>
<feColorMatrix type="matrix" values="0 0 0 0 0.133333 0 0 0 0 0.960784 0 0 0 0 0.764706 0 0 0 0.35 0"/>
<feBlend mode="normal" in2="effect1_backgroundBlur_1_32" result="effect2_dropShadow_1_32"/>
<feBlend mode="normal" in="SourceGraphic" in2="effect2_dropShadow_1_32" result="shape"/>
</filter>
</defs>
</svg>
