<svg width="96" height="96" viewBox="0 0 96 96" fill="none" xmlns="http://www.w3.org/2000/svg">
<g filter="url(#filter0_bd_1_384)">
<path d="M29 72C26.2386 72 24 69.7614 24 67L24 29C24 26.2386 26.2386 24 29 24L54.605 24C55.7166 24 56.7964 24.3704 57.6739 25.0526L70.0689 34.6892C71.2873 35.6364 72 37.0932 72 38.6365L72 67C72 69.7614 69.7614 72 67 72L29 72Z" fill="#22F5C3"/>
</g>
<path d="M58.6618 52.7684L57.2291 50.4379C56.6857 49.5537 56.4011 48.5463 56.4011 47.5168V44.1979C56.4043 39.6758 52.6331 36 47.9984 36C43.3636 36 39.5957 39.6758 39.5957 44.1979V47.5168C39.5957 48.5463 39.3111 49.5537 38.7677 50.4379L37.3349 52.7684C36.8983 53.4789 36.8886 54.3347 37.3058 55.0579C37.723 55.7811 38.4831 56.2105 39.3337 56.2105H44.8514C44.8094 56.4189 44.7673 56.6274 44.7673 56.8421C44.7673 58.5821 46.2195 60 48.0016 60C49.7837 60 51.2359 58.5821 51.2359 56.8421C51.2359 56.6274 51.1939 56.4189 51.1518 56.2105H56.6663C57.5169 56.2105 58.2737 55.7779 58.6942 55.0579C59.1114 54.3347 59.1017 53.4821 58.6651 52.7716L58.6618 52.7684ZM49.939 56.8421C49.939 57.8874 49.0689 58.7368 47.9984 58.7368C46.9278 58.7368 46.0578 57.8874 46.0578 56.8421C46.0578 56.6242 46.1096 56.4126 46.1839 56.2105H49.8128C49.8872 56.4126 49.939 56.6242 49.939 56.8421ZM57.5654 54.4358C57.3778 54.7579 57.0415 54.9474 56.6631 54.9474H39.3369C38.9585 54.9474 38.6222 54.7547 38.4346 54.4358C38.2502 54.1137 38.2535 53.7347 38.4475 53.4189L39.8803 51.0884C40.5433 50.0084 40.8926 48.7768 40.8926 47.52V44.2011C40.8926 40.3768 44.0817 37.2663 48.0016 37.2663C51.9216 37.2663 55.1106 40.3768 55.1106 44.2011V47.52C55.1106 48.7768 55.4599 50.0116 56.1229 51.0884L57.5557 53.4189C57.7498 53.7347 57.7562 54.1137 57.5687 54.4358H57.5654Z" fill="black"/>
<defs>
<filter id="filter0_bd_1_384" x="0" y="0" width="96" height="96" filterUnits="userSpaceOnUse" color-interpolation-filters="sRGB">
<feFlood flood-opacity="0" result="BackgroundImageFix"/>
<feGaussianBlur in="BackgroundImageFix" stdDeviation="2"/>
<feComposite in2="SourceAlpha" operator="in" result="effect1_backgroundBlur_1_384"/>
<feColorMatrix in="SourceAlpha" type="matrix" values="0 0 0 0 0 0 0 0 0 0 0 0 0 0 0 0 0 0 127 0" result="hardAlpha"/>
<feOffset/>
<feGaussianBlur stdDeviation="12"/>
<feComposite in2="hardAlpha" operator="out"/>
<feColorMatrix type="matrix" values="0 0 0 0 0.133333 0 0 0 0 0.960784 0 0 0 0 0.764706 0 0 0 0.35 0"/>
<feBlend mode="normal" in2="effect1_backgroundBlur_1_384" result="effect2_dropShadow_1_384"/>
<feBlend mode="normal" in="SourceGraphic" in2="effect2_dropShadow_1_384" result="shape"/>
</filter>
</defs>
</svg>
