<svg width="83" height="33" viewBox="0 0 83 33" fill="none" xmlns="http://www.w3.org/2000/svg">
<rect width="33" height="33" rx="4" fill="#F5C518"/>
<path d="M5.0769 21.2597H7.45672V12.6924H5.0769V21.2597Z" fill="black"/>
<path d="M12.5364 12.6924L12.0039 16.6945L11.6729 14.5177C11.577 13.8205 11.4849 13.212 11.3967 12.6924H8.40869V21.2597H10.4275L10.4353 15.6023L11.2852 21.2597H12.7225L13.5293 15.4777L13.5351 21.2597H15.5481V12.6924H12.5364Z" fill="black"/>
<path d="M16.4998 21.2597V12.6924H20.2145C21.0544 12.6924 21.7355 13.3683 21.7355 14.2043V19.7479C21.7355 20.5828 21.0558 21.2597 20.2145 21.2597H16.4998ZM19.2759 14.2343C19.1816 14.1834 19.0008 14.1587 18.7383 14.1587V19.7802C19.0851 19.7802 19.2984 19.7179 19.3785 19.5874C19.4586 19.4589 19.4995 19.1113 19.4995 18.5406V15.2188C19.4995 14.8314 19.485 14.5839 19.4583 14.4743C19.4316 14.3647 19.3721 14.2855 19.2756 14.2343H19.2759Z" fill="black"/>
<path d="M26.2237 14.8375H26.3759C27.2302 14.8375 27.923 15.5067 27.923 16.331V19.766C27.923 20.5909 27.2305 21.2594 26.3759 21.2594H26.2237C25.7009 21.2594 25.2387 21.0089 24.9586 20.6256L24.8215 21.1493H22.6873V12.6924H24.9644V15.4438C25.2587 15.0773 25.712 14.8375 26.2237 14.8375ZM25.7362 19.0153V16.9854C25.7362 16.65 25.7148 16.4297 25.6697 16.3285C25.625 16.2273 25.4459 16.1622 25.3202 16.1622C25.1944 16.1622 25.0009 16.215 24.9631 16.304V19.7404C25.0062 19.8383 25.1908 19.8928 25.3202 19.8928C25.4495 19.8928 25.6375 19.8402 25.677 19.7404C25.7165 19.6408 25.7362 19.398 25.7362 19.0153Z" fill="black"/>
<rect x="49.5" width="33" height="33" rx="4" fill="#4A99E9"/>
<path d="M75.0122 10.8449L72.3234 11.629C71.8846 11.0595 70.7923 9.92054 69.1164 10.196C68.5957 10.2595 68.0942 10.432 67.6446 10.7022C67.195 10.9724 66.8074 11.3343 66.507 11.7644C65.9761 12.6226 65.7753 13.6447 65.9421 14.64C64.8591 14.4066 61.9696 12.1753 60.1724 10.154C60.1724 10.154 59.5702 12.2033 60.6392 13.529C60.31 13.3505 59.9975 13.1427 59.7056 12.9081C59.7079 12.9314 59.7079 12.9548 59.7056 12.9781C59.7056 13.3982 59.7056 15.8538 60.952 16.8528C60.6826 16.7905 60.4175 16.7109 60.1584 16.6146C60.6541 17.9599 61.5298 19.1324 62.6791 19.9896C61.8249 20.5544 61.4421 20.7365 59.1127 21.1753C59.4091 21.334 59.7222 21.4592 60.0463 21.5487C59.5129 21.746 58.9526 21.8609 58.3845 21.8894L58.884 22.095C60.7985 22.8309 62.8271 23.2258 64.8778 23.262C68.4816 23.262 72.8976 21.7636 73.5278 14.6167L75.3296 12.3433L72.9489 12.9501L75.0122 10.8449Z" fill="white"/>
</svg>
