<svg width="101" height="101" viewBox="0 0 101 101" fill="none" xmlns="http://www.w3.org/2000/svg">
<g filter="url(#filter0_bd_1_40)">
<path d="M29 77C26.2386 77 24 74.7614 24 72L24 29C24 26.2386 26.2386 24 29 24L57.9717 24C59.0832 24 60.1631 24.3704 61.0406 25.0526L75.0689 35.959C76.2873 36.9062 77 38.3631 77 39.9064L77 72C77 74.7614 74.7614 77 72 77L29 77Z" fill="#22F5C3"/>
</g>
<path d="M58.7259 41.1172L53.1051 38.6183C51.2517 37.7939 49.0372 37.7939 47.1838 38.6183L41.5598 41.1172C39.3645 42.0918 38 44.0698 38 46.2747V54.0078C38 56.2127 39.3645 58.1907 41.5598 59.1653L47.1838 61.6642C48.1041 62.0732 49.1107 62.2777 50.1173 62.2809C50.1269 62.2809 50.1333 62.2873 50.1428 62.2873C50.1524 62.2873 50.1588 62.2841 50.1684 62.2809C51.1782 62.2777 52.1848 62.0732 53.1019 61.6642L58.7259 59.1653C60.9212 58.1907 62.2857 56.2127 62.2857 54.0078V46.2747C62.2857 44.0698 60.9212 42.0918 58.7259 41.1172ZM47.7015 39.7879C48.4652 39.4492 49.3056 39.2766 50.1428 39.2766C50.9801 39.2766 51.8205 39.446 52.5842 39.7879L58.2051 42.2835C58.7771 42.5392 59.2692 42.8811 59.6846 43.2805L55.8915 44.9646L45.9663 40.558L47.7015 39.7879ZM42.0806 42.2835L44.391 41.2578L54.3194 45.6676L51.8109 46.7828C50.8075 47.2302 49.4814 47.2302 48.478 46.7828L40.6011 43.2837C41.0133 42.8843 41.5054 42.5392 42.0806 42.2867V42.2835ZM42.0806 57.9958C40.3519 57.2288 39.2782 55.6982 39.2782 54.0078V46.2747C39.2782 45.5813 39.4667 44.9198 39.7959 44.3255L47.9571 47.9523C48.4333 48.1632 48.9637 48.2751 49.5038 48.339V60.9388C48.8838 60.8749 48.2703 60.7471 47.7015 60.4946L42.0774 57.9958H42.0806ZM61.0075 54.0078C61.0075 55.7014 59.9338 57.2288 58.2051 57.9958L52.581 60.4946C52.0122 60.7471 51.3987 60.8749 50.7788 60.9388V48.339C51.3188 48.2783 51.8492 48.1632 52.3254 47.9523L60.4866 44.3255C60.8158 44.923 61.0043 45.5845 61.0043 46.2747V54.0078H61.0075Z" fill="black"/>
<defs>
<filter id="filter0_bd_1_40" x="0" y="0" width="101" height="101" filterUnits="userSpaceOnUse" color-interpolation-filters="sRGB">
<feFlood flood-opacity="0" result="BackgroundImageFix"/>
<feGaussianBlur in="BackgroundImageFix" stdDeviation="2"/>
<feComposite in2="SourceAlpha" operator="in" result="effect1_backgroundBlur_1_40"/>
<feColorMatrix in="SourceAlpha" type="matrix" values="0 0 0 0 0 0 0 0 0 0 0 0 0 0 0 0 0 0 127 0" result="hardAlpha"/>
<feOffset/>
<feGaussianBlur stdDeviation="12"/>
<feComposite in2="hardAlpha" operator="out"/>
<feColorMatrix type="matrix" values="0 0 0 0 0.133333 0 0 0 0 0.960784 0 0 0 0 0.764706 0 0 0 0.35 0"/>
<feBlend mode="normal" in2="effect1_backgroundBlur_1_40" result="effect2_dropShadow_1_40"/>
<feBlend mode="normal" in="SourceGraphic" in2="effect2_dropShadow_1_40" result="shape"/>
</filter>
</defs>
</svg>
