<svg width="143" height="45" viewBox="0 0 143 45" fill="none" xmlns="http://www.w3.org/2000/svg">
<g filter="url(#filter0_bd_1_369)">
<path d="M143 40C143 42.7614 140.761 45 138 45L5 45C2.23859 45 -1.95703e-07 42.7614 -4.37114e-07 40L-2.46067e-06 16.8532C-2.58083e-06 15.4788 0.565793 14.1649 1.5644 13.2205L14.0977 1.36728C15.0262 0.48925 16.2555 -3.63736e-07 17.5333 -4.75449e-07L138 -1.1007e-05C140.761 -1.12484e-05 143 2.23857 143 4.99999L143 40Z" fill="white" fill-opacity="0.09" shape-rendering="crispEdges"/>
<path d="M141.5 40C141.5 41.933 139.933 43.5 138 43.5L5 43.5C3.06702 43.5 1.5 41.933 1.5 40L1.5 16.8532C1.5 15.8911 1.89605 14.9714 2.59507 14.3103L1.5644 13.2205L2.59509 14.3103L15.1284 2.45709C15.7783 1.84248 16.6389 1.5 17.5333 1.5L138 1.49999C139.933 1.49999 141.5 3.06699 141.5 4.99999L141.5 40Z" stroke="#22F5C3" stroke-width="3" shape-rendering="crispEdges"/>
</g>
<defs>
<filter id="filter0_bd_1_369" x="-114" y="-114" width="371" height="273" filterUnits="userSpaceOnUse" color-interpolation-filters="sRGB">
<feFlood flood-opacity="0" result="BackgroundImageFix"/>
<feGaussianBlur in="BackgroundImageFix" stdDeviation="57"/>
<feComposite in2="SourceAlpha" operator="in" result="effect1_backgroundBlur_1_369"/>
<feColorMatrix in="SourceAlpha" type="matrix" values="0 0 0 0 0 0 0 0 0 0 0 0 0 0 0 0 0 0 127 0" result="hardAlpha"/>
<feOffset/>
<feGaussianBlur stdDeviation="37"/>
<feComposite in2="hardAlpha" operator="out"/>
<feColorMatrix type="matrix" values="0 0 0 0 0.133333 0 0 0 0 0.960784 0 0 0 0 0.764706 0 0 0 0.55 0"/>
<feBlend mode="normal" in2="effect1_backgroundBlur_1_369" result="effect2_dropShadow_1_369"/>
<feBlend mode="normal" in="SourceGraphic" in2="effect2_dropShadow_1_369" result="shape"/>
</filter>
</defs>
</svg>
