<svg width="101" height="101" viewBox="0 0 101 101" fill="none" xmlns="http://www.w3.org/2000/svg">
<g filter="url(#filter0_bd_1_36)">
<path d="M29 77C26.2386 77 24 74.7614 24 72L24 29C24 26.2386 26.2386 24 29 24L57.9717 24C59.0832 24 60.1631 24.3704 61.0406 25.0526L75.0689 35.959C76.2873 36.9062 77 38.3631 77 39.9064L77 72C77 74.7614 74.7614 77 72 77L29 77Z" fill="#22F5C3"/>
</g>
<path d="M50.1428 51.5038C53.316 51.5038 55.8947 48.925 55.8947 45.7519C55.8947 42.5788 53.316 40 50.1428 40C46.9697 40 44.391 42.5788 44.391 45.7519C44.391 48.925 46.9697 51.5038 50.1428 51.5038ZM50.1428 41.2782C52.6098 41.2782 54.6165 43.285 54.6165 45.7519C54.6165 48.2188 52.6098 50.2256 50.1428 50.2256C47.6759 50.2256 45.6692 48.2188 45.6692 45.7519C45.6692 43.285 47.6759 41.2782 50.1428 41.2782ZM58.4511 57.7669V58.8725C58.4511 59.8504 58.0932 60.7898 57.4445 61.5152C57.3167 61.6558 57.141 61.7293 56.9684 61.7293C56.815 61.7293 56.6648 61.675 56.5434 61.5663C56.2814 61.3299 56.259 60.9272 56.4923 60.6652C56.9333 60.1731 57.1729 59.5404 57.1729 58.8757V57.7701C57.1729 56.0286 56.0162 54.5203 54.3577 54.1017C54.035 54.0186 53.6866 54.0633 53.4054 54.2263C51.3795 55.3511 48.8966 55.3479 46.8835 54.2263C46.5959 54.0633 46.2507 54.0154 45.9248 54.0985C44.2663 54.5139 43.1096 56.0222 43.1096 57.7669V58.8725C43.1096 59.5372 43.3524 60.1699 43.7902 60.662C44.0235 60.924 44.0011 61.3299 43.7391 61.5631C43.4771 61.7964 43.0744 61.7772 42.838 61.512C42.1893 60.7866 41.8314 59.8472 41.8314 58.8693V57.7637C41.8314 55.4342 43.3876 53.4178 45.6116 52.8554C46.2539 52.6925 46.941 52.7851 47.5098 53.1079C49.1299 54.009 51.143 54.0122 52.7759 53.1079C53.3351 52.7883 54.0286 52.6989 54.6677 52.8586C56.8917 53.4178 58.4479 55.4374 58.4479 57.7669H58.4511ZM57.2081 40.6455C57.3263 40.3132 57.6906 40.1438 58.0229 40.2556C59.806 40.8851 61.0043 42.582 61.0043 44.4737C61.0043 45.7455 60.4611 46.9598 59.512 47.8066C59.3906 47.9152 59.2372 47.9695 59.087 47.9695C58.9113 47.9695 58.7355 47.8992 58.6109 47.7554C58.3776 47.4934 58.4 47.0876 58.662 46.8543C59.3395 46.2504 59.7261 45.3812 59.7261 44.4737C59.7261 43.122 58.8697 41.9109 57.5947 41.4603C57.2624 41.3421 57.0866 40.9778 57.2049 40.6455H57.2081ZM62.2857 54.4883V55.4118C62.2857 55.7665 62.0013 56.0509 61.6466 56.0509C61.2919 56.0509 61.0075 55.7665 61.0075 55.4118V54.4883C61.0075 53.0855 60.0776 51.8712 58.7419 51.5357C58.4 51.4494 58.1923 51.1011 58.2786 50.7592C58.3648 50.4173 58.7068 50.2064 59.0551 50.2959C60.9564 50.7752 62.2857 52.4975 62.2857 54.4883ZM40.7705 48.3754C39.8246 47.5286 39.2782 46.3111 39.2782 45.0425C39.2782 43.1507 40.4765 41.4539 42.2596 40.8244C42.5919 40.7094 42.9562 40.882 43.0744 41.2143C43.1927 41.5466 43.0169 41.9109 42.6846 42.0291C41.4096 42.4797 40.5532 43.6908 40.5532 45.0425C40.5532 45.95 40.9398 46.8192 41.6173 47.4231C41.8793 47.6596 41.9017 48.0622 41.6684 48.3242C41.5406 48.4648 41.3648 48.5383 41.1923 48.5383C41.0421 48.5383 40.8887 48.484 40.7673 48.3754H40.7705ZM41.5438 52.1013C40.2113 52.4368 39.2782 53.6511 39.2782 55.0539V55.9774C39.2782 56.3321 38.9938 56.6165 38.6391 56.6165C38.2844 56.6165 38 56.3321 38 55.9774V55.0539C38 53.0631 39.3293 51.3408 41.2306 50.8615C41.5757 50.7752 41.9209 50.9829 42.0071 51.3248C42.0934 51.6667 41.8857 52.015 41.5438 52.1013Z" fill="black"/>
<defs>
<filter id="filter0_bd_1_36" x="0" y="0" width="101" height="101" filterUnits="userSpaceOnUse" color-interpolation-filters="sRGB">
<feFlood flood-opacity="0" result="BackgroundImageFix"/>
<feGaussianBlur in="BackgroundImageFix" stdDeviation="2"/>
<feComposite in2="SourceAlpha" operator="in" result="effect1_backgroundBlur_1_36"/>
<feColorMatrix in="SourceAlpha" type="matrix" values="0 0 0 0 0 0 0 0 0 0 0 0 0 0 0 0 0 0 127 0" result="hardAlpha"/>
<feOffset/>
<feGaussianBlur stdDeviation="12"/>
<feComposite in2="hardAlpha" operator="out"/>
<feColorMatrix type="matrix" values="0 0 0 0 0.133333 0 0 0 0 0.960784 0 0 0 0 0.764706 0 0 0 0.35 0"/>
<feBlend mode="normal" in2="effect1_backgroundBlur_1_36" result="effect2_dropShadow_1_36"/>
<feBlend mode="normal" in="SourceGraphic" in2="effect2_dropShadow_1_36" result="shape"/>
</filter>
</defs>
</svg>
