<svg width="101" height="101" viewBox="0 0 101 101" fill="none" xmlns="http://www.w3.org/2000/svg">
<g filter="url(#filter0_bd_1_28)">
<path d="M29 77C26.2386 77 24 74.7614 24 72L24 29C24 26.2386 26.2386 24 29 24L57.9717 24C59.0832 24 60.1631 24.3704 61.0406 25.0526L75.0689 35.959C76.2873 36.9062 77 38.3631 77 39.9064L77 72C77 74.7614 74.7614 77 72 77L29 77Z" fill="#22F5C3"/>
</g>
<path d="M50.5865 50.7819C54.1111 50.7819 56.9774 47.9156 56.9774 44.391C56.9774 40.8664 54.1111 38 50.5865 38C47.0618 38 44.1955 40.8664 44.1955 44.391C44.1955 47.9156 47.0618 50.7819 50.5865 50.7819ZM50.5865 39.2782C53.4049 39.2782 55.6992 41.5726 55.6992 44.391C55.6992 47.2094 53.4049 49.5038 50.5865 49.5038C47.768 49.5038 45.4737 47.2094 45.4737 44.391C45.4737 41.5726 47.768 39.2782 50.5865 39.2782ZM60.1729 57.7705V59.0615C60.1729 60.1767 59.7639 61.2472 59.0257 62.0716C58.8979 62.2122 58.7254 62.2857 58.5496 62.2857C58.3962 62.2857 58.246 62.2314 58.1246 62.1227C57.8626 61.8863 57.8402 61.4836 58.0735 61.2216C58.6039 60.6304 58.8947 59.8635 58.8947 59.0646V57.7737C58.8947 55.6934 57.5111 53.8912 55.5299 53.3927C55.1272 53.2904 54.6927 53.3479 54.3412 53.5492C52.0116 54.8434 49.1581 54.8402 46.8382 53.5492C46.4803 53.3447 46.0489 53.2904 45.643 53.3895C43.6618 53.888 42.2782 55.6902 42.2782 57.7705V59.0615C42.2782 59.8635 42.569 60.6272 43.0994 61.2184C43.3359 61.4804 43.3135 61.8863 43.0483 62.1195C42.7863 62.3528 42.3836 62.3336 42.1472 62.0684C41.409 61.244 41 60.1735 41 59.0583V57.7673C41 55.099 42.7799 52.7887 45.3299 52.1464C46.0489 51.9643 46.8286 52.0665 47.4645 52.4308C49.3913 53.5045 51.7752 53.5077 53.7148 52.4308C54.3444 52.0697 55.1241 51.9675 55.843 52.1496C58.393 52.7919 60.1729 55.1022 60.1729 57.7705Z" fill="black"/>
<defs>
<filter id="filter0_bd_1_28" x="0" y="0" width="101" height="101" filterUnits="userSpaceOnUse" color-interpolation-filters="sRGB">
<feFlood flood-opacity="0" result="BackgroundImageFix"/>
<feGaussianBlur in="BackgroundImageFix" stdDeviation="2"/>
<feComposite in2="SourceAlpha" operator="in" result="effect1_backgroundBlur_1_28"/>
<feColorMatrix in="SourceAlpha" type="matrix" values="0 0 0 0 0 0 0 0 0 0 0 0 0 0 0 0 0 0 127 0" result="hardAlpha"/>
<feOffset/>
<feGaussianBlur stdDeviation="12"/>
<feComposite in2="hardAlpha" operator="out"/>
<feColorMatrix type="matrix" values="0 0 0 0 0.133333 0 0 0 0 0.960784 0 0 0 0 0.764706 0 0 0 0.35 0"/>
<feBlend mode="normal" in2="effect1_backgroundBlur_1_28" result="effect2_dropShadow_1_28"/>
<feBlend mode="normal" in="SourceGraphic" in2="effect2_dropShadow_1_28" result="shape"/>
</filter>
</defs>
</svg>
