<svg width="765" height="421" viewBox="0 0 765 421" fill="none" xmlns="http://www.w3.org/2000/svg">
<g filter="url(#filter0_bd_1_116)">
<path d="M3.0598e-06 386C1.36992e-06 405.33 15.67 421 35 421L730 421C749.33 421 765 405.33 765 386L765 95.3031C765 85.8214 761.153 76.7455 754.339 70.1518L692.025 9.84872C685.497 3.53174 676.769 5.9165e-05 667.685 5.83709e-05L35 3.0598e-06C15.6701 1.36992e-06 3.54351e-05 15.67 3.37452e-05 35L3.0598e-06 386Z" fill="white" fill-opacity="0.05" shape-rendering="crispEdges"/>
<path d="M1.5 386C1.5 404.501 16.4985 419.5 35 419.5L730 419.5C748.501 419.5 763.5 404.502 763.5 386L763.5 95.3031C763.5 86.2278 759.818 77.5408 753.296 71.2297L690.982 10.9266C684.734 4.88037 676.38 1.50006 667.685 1.50006L35 1.5C16.4985 1.5 1.50003 16.4985 1.50003 35L1.5 386Z" stroke="#22F5C3" stroke-width="3" shape-rendering="crispEdges"/>
</g>
<defs>
<filter id="filter0_bd_1_116" x="-74" y="-74" width="913" height="569" filterUnits="userSpaceOnUse" color-interpolation-filters="sRGB">
<feFlood flood-opacity="0" result="BackgroundImageFix"/>
<feGaussianBlur in="BackgroundImageFix" stdDeviation="5"/>
<feComposite in2="SourceAlpha" operator="in" result="effect1_backgroundBlur_1_116"/>
<feColorMatrix in="SourceAlpha" type="matrix" values="0 0 0 0 0 0 0 0 0 0 0 0 0 0 0 0 0 0 127 0" result="hardAlpha"/>
<feOffset/>
<feGaussianBlur stdDeviation="37"/>
<feComposite in2="hardAlpha" operator="out"/>
<feColorMatrix type="matrix" values="0 0 0 0 0.133333 0 0 0 0 0.960784 0 0 0 0 0.764706 0 0 0 0.15 0"/>
<feBlend mode="normal" in2="effect1_backgroundBlur_1_116" result="effect2_dropShadow_1_116"/>
<feBlend mode="normal" in="SourceGraphic" in2="effect2_dropShadow_1_116" result="shape"/>
</filter>
</defs>
</svg>
